<?xml version="1.0" standalone="no"?>
<!DOCTYPE svg PUBLIC "-//W3C//DTD SVG 20010904//EN"
 "http://www.w3.org/TR/2001/REC-SVG-20010904/DTD/svg10.dtd">
<svg version="1.0" xmlns="http://www.w3.org/2000/svg"
 width="1080.000000pt" height="1080.000000pt" viewBox="0 0 1080.000000 1080.000000"
 preserveAspectRatio="xMidYMid meet">
<metadata>
Created by potrace 1.14, written by Peter Selinger 2001-2017
</metadata>
<g transform="translate(0.000000,1080.000000) scale(0.100000,-0.100000)"
fill="#000000" stroke="none">
<path d="M0 5400 l0 -5400 5400 0 5400 0 0 5400 0 5400 -5400 0 -5400 0 0
-5400z m7992 5091 c2 -5 41 -11 86 -13 51 -2 88 -8 94 -15 6 -7 30 -13 53 -13
26 0 48 -6 55 -15 8 -9 30 -15 56 -15 24 0 44 -4 44 -10 0 -5 15 -10 34 -10
18 0 39 -7 46 -15 7 -8 22 -15 33 -15 25 0 97 -31 97 -42 0 -4 9 -8 19 -8 11
0 22 -4 26 -9 6 -11 127 -71 143 -71 6 0 19 -10 29 -22 20 -24 76 -58 97 -58
6 0 30 -18 51 -40 21 -22 45 -40 52 -40 15 0 303 -289 303 -305 0 -6 14 -24
30 -40 17 -16 30 -34 30 -40 0 -6 16 -30 35 -52 19 -23 35 -46 35 -52 0 -7 8
-24 19 -39 59 -86 111 -189 111 -218 0 -12 7 -27 15 -34 8 -7 15 -18 15 -25 0
-7 7 -26 15 -41 8 -16 15 -37 15 -46 0 -9 5 -20 10 -23 6 -3 10 -17 10 -30 0
-13 4 -34 9 -47 17 -46 34 -125 41 -198 4 -41 13 -93 19 -115 17 -63 14 -318
-4 -362 -8 -19 -15 -56 -15 -80 0 -25 -11 -87 -25 -139 -14 -52 -25 -103 -25
-113 0 -11 -6 -32 -14 -48 -31 -62 -38 -81 -40 -113 -1 -19 -8 -36 -14 -38 -7
-2 -12 -12 -12 -23 0 -11 -11 -37 -25 -59 -14 -22 -25 -44 -25 -49 0 -18 -35
-75 -57 -94 -13 -10 -23 -25 -23 -33 0 -19 -26 -61 -64 -102 -16 -17 -35 -43
-41 -57 -12 -30 -314 -335 -331 -335 -6 0 -31 -18 -54 -40 -23 -22 -47 -40
-53 -40 -5 0 -25 -11 -43 -25 -18 -14 -36 -25 -39 -25 -4 0 -27 -13 -52 -30
-24 -16 -49 -30 -56 -31 -7 0 -25 -9 -42 -20 -16 -10 -37 -22 -45 -25 -53 -22
-80 -36 -85 -44 -3 -6 -19 -10 -34 -10 -16 0 -42 -7 -57 -15 -16 -8 -37 -15
-46 -15 -9 0 -19 -4 -22 -9 -3 -5 -20 -11 -38 -14 -72 -12 -133 -28 -142 -37
-6 -6 -44 -10 -86 -10 -50 0 -83 -5 -96 -15 -15 -10 -54 -15 -125 -17 l-104
-3 -3 -34 c-2 -18 1 -38 7 -44 6 -6 11 -18 11 -27 0 -8 7 -28 15 -44 8 -15 15
-43 15 -61 0 -18 7 -46 15 -61 8 -16 15 -37 15 -46 0 -9 5 -20 10 -23 6 -3 10
-15 10 -26 0 -11 5 -30 12 -42 6 -12 13 -40 16 -62 2 -22 8 -44 13 -50 5 -5 9
-18 9 -30 0 -11 7 -33 15 -49 8 -15 15 -36 15 -45 0 -9 5 -22 12 -29 6 -6 15
-33 19 -59 15 -92 21 -112 35 -124 8 -6 14 -24 14 -40 0 -15 5 -31 10 -34 6
-3 10 -21 10 -39 0 -19 7 -39 15 -46 8 -7 15 -29 15 -49 0 -20 7 -45 15 -55 8
-11 15 -30 15 -42 0 -13 5 -26 10 -29 6 -3 10 -19 10 -34 0 -15 5 -32 12 -39
7 -7 14 -31 15 -54 2 -23 7 -46 13 -52 5 -5 10 -19 10 -31 0 -11 7 -31 16 -43
9 -13 14 -29 11 -36 -3 -7 3 -30 14 -52 10 -21 18 -53 19 -71 0 -17 5 -35 10
-38 6 -3 10 -20 10 -36 0 -17 6 -32 15 -35 9 -4 15 -19 15 -39 0 -19 5 -37 10
-40 6 -3 10 -14 10 -23 0 -9 7 -30 15 -46 8 -15 15 -44 15 -63 0 -19 7 -41 15
-49 8 -9 15 -26 15 -40 0 -13 4 -32 9 -42 5 -9 17 -53 27 -97 18 -83 20 -88
47 -143 9 -19 17 -51 17 -72 0 -24 5 -40 15 -44 9 -3 15 -18 15 -40 0 -19 5
-38 10 -41 6 -3 10 -18 10 -33 1 -15 7 -38 15 -52 8 -14 14 -39 15 -57 0 -17
5 -35 10 -38 6 -3 10 -21 10 -40 0 -20 6 -35 15 -39 9 -3 15 -18 15 -40 0 -19
5 -38 10 -41 6 -3 10 -14 10 -23 0 -9 7 -30 15 -46 8 -15 15 -45 15 -66 0 -24
5 -40 15 -44 9 -3 15 -18 15 -40 0 -19 5 -38 10 -41 6 -3 10 -18 10 -33 0 -15
7 -36 15 -46 8 -11 15 -36 15 -55 0 -20 7 -45 15 -55 8 -11 15 -30 15 -43 0
-13 5 -23 10 -23 6 0 10 -19 10 -42 0 -24 7 -52 15 -62 8 -11 15 -32 15 -47 0
-15 5 -31 10 -34 6 -3 10 -23 10 -44 0 -20 7 -46 15 -57 8 -10 15 -30 15 -44
0 -14 7 -36 16 -48 9 -13 13 -29 10 -37 -2 -7 2 -19 10 -25 8 -7 14 -30 14
-54 0 -22 7 -50 15 -60 8 -11 15 -30 15 -42 0 -13 5 -26 10 -29 6 -3 10 -19
10 -35 0 -16 4 -32 10 -35 5 -3 12 -28 16 -55 4 -27 13 -51 20 -54 8 -3 14
-20 14 -40 0 -19 5 -38 10 -41 6 -3 10 -26 10 -51 0 -30 5 -46 15 -50 9 -4 15
-19 15 -38 0 -18 4 -36 9 -42 5 -5 12 -29 15 -53 2 -24 9 -48 15 -54 6 -6 11
-21 11 -33 0 -12 7 -35 15 -50 8 -16 15 -43 15 -61 0 -17 5 -35 10 -38 6 -3
10 -23 10 -44 0 -22 6 -44 15 -51 10 -8 15 -30 15 -61 0 -26 5 -51 10 -54 6
-3 10 -17 10 -29 0 -13 7 -29 15 -36 8 -7 15 -29 15 -50 0 -20 7 -51 16 -69 9
-18 14 -43 11 -57 -2 -13 2 -29 9 -35 9 -7 14 -32 14 -64 0 -29 7 -66 15 -81
8 -16 15 -43 15 -61 0 -17 5 -35 10 -38 6 -3 10 -32 10 -64 0 -32 7 -75 15
-94 19 -47 19 -146 0 -171 -8 -11 -15 -29 -15 -41 0 -26 -50 -85 -72 -85 -9 0
-21 -7 -28 -15 -11 -13 -480 -15 -4110 -15 l-4097 0 -47 25 c-26 14 -52 25
-59 25 -6 0 -26 17 -44 38 l-33 37 0 126 c0 100 3 129 15 139 9 7 15 29 15 51
0 21 4 41 10 44 5 3 10 21 10 39 0 19 7 39 15 46 9 8 15 29 15 56 0 23 4 46
10 49 5 3 10 14 10 23 0 9 7 30 15 46 8 15 15 45 15 65 0 20 7 45 15 55 8 11
15 32 15 48 0 15 5 28 10 28 6 0 10 15 10 34 0 18 7 39 15 46 8 7 15 25 15 41
0 16 5 29 10 29 6 0 10 15 10 34 0 18 7 39 15 46 8 7 15 25 15 40 0 15 7 33
15 40 8 7 15 23 15 36 0 12 11 44 25 70 14 26 25 57 25 70 0 13 5 26 10 29 6
3 10 19 10 34 0 16 7 34 15 41 8 7 15 24 15 39 0 15 6 33 12 39 7 7 13 27 14
44 1 17 7 34 14 38 7 4 13 21 14 38 1 17 7 37 14 44 6 6 12 24 12 39 0 15 5
31 10 34 6 3 10 14 10 23 0 10 14 44 30 75 17 32 30 69 30 82 0 13 4 27 10 30
5 3 10 19 10 34 0 16 7 34 15 41 8 7 15 25 15 41 0 15 5 31 10 34 6 3 10 19
10 35 0 16 7 35 15 44 8 8 15 21 15 28 0 7 7 22 15 32 8 11 15 30 15 42 0 13
5 26 10 29 6 3 10 19 10 34 0 16 7 34 15 41 8 7 15 28 15 46 0 19 5 34 10 34
6 0 10 8 10 18 0 9 7 30 15 46 8 15 15 35 15 43 0 8 7 21 15 29 8 9 15 28 15
44 0 16 5 32 10 35 6 3 10 19 10 34 0 16 7 34 15 41 8 7 15 25 15 41 0 15 5
31 10 34 6 3 10 21 10 40 0 20 6 35 15 39 8 3 15 12 15 21 0 9 7 27 16 40 9
14 14 31 11 39 -3 8 1 20 9 26 8 7 14 25 14 40 0 15 7 33 15 40 8 7 15 25 15
41 0 15 4 31 10 34 5 3 10 14 10 24 0 10 7 24 15 31 8 7 15 25 15 40 0 15 7
33 15 40 8 7 15 25 15 41 0 15 5 31 10 34 6 3 10 22 10 41 0 22 6 37 15 40 8
4 15 19 15 34 0 16 5 32 10 35 6 3 10 14 10 24 0 10 7 24 15 31 8 7 15 25 15
41 0 15 4 30 9 33 4 3 11 24 15 46 3 22 11 40 16 40 6 0 10 15 10 34 0 18 7
39 15 46 8 7 15 21 15 31 0 11 5 19 10 19 6 0 10 15 10 34 0 18 7 39 15 46 8
7 15 25 15 40 0 15 7 33 15 40 8 7 15 23 15 36 0 13 11 43 25 68 14 25 25 56
25 70 0 14 5 28 10 31 6 3 10 19 10 34 0 16 7 34 15 41 8 7 15 22 15 35 0 12
11 43 25 69 14 26 25 58 25 70 0 13 7 29 15 36 8 7 15 25 15 41 0 15 5 31 10
34 6 3 10 15 10 27 0 11 6 32 14 46 25 48 46 100 46 115 0 9 5 19 10 22 5 3
10 19 10 34 0 16 7 34 15 41 8 7 15 28 15 46 0 19 5 34 10 34 6 0 10 9 10 21
0 11 7 35 16 52 32 61 34 67 34 97 0 18 6 33 15 36 9 4 15 19 15 36 0 16 7 36
15 44 8 9 15 26 15 39 0 14 11 44 25 69 14 25 25 56 25 70 0 14 4 26 9 26 5 0
11 18 15 40 3 22 11 40 16 40 6 0 10 13 10 29 0 16 6 36 13 43 27 29 49 87 43
112 -6 25 -8 26 -94 26 -56 1 -96 6 -112 15 -16 9 -54 14 -102 15 -42 0 -80 5
-83 10 -3 6 -19 10 -34 10 -16 0 -34 7 -41 15 -8 9 -29 15 -56 15 -23 0 -46 5
-49 10 -3 6 -16 10 -29 10 -12 0 -31 7 -42 15 -10 8 -33 15 -51 15 -17 0 -33
3 -35 8 -1 4 -21 15 -43 26 -22 10 -47 22 -55 27 -8 4 -60 31 -115 59 -55 28
-127 71 -160 95 -33 25 -73 53 -89 64 -39 26 -316 299 -316 312 0 5 -18 29
-40 53 -22 24 -40 47 -40 52 0 5 -11 21 -25 36 -14 15 -25 33 -25 40 0 7 -11
25 -24 39 -13 14 -27 35 -30 47 -4 12 -12 22 -17 22 -5 0 -9 6 -9 14 0 17 -32
80 -42 84 -5 2 -8 15 -8 29 0 14 -6 37 -14 51 -26 49 -46 100 -46 116 0 9 -4
16 -10 16 -5 0 -10 20 -10 44 0 26 -6 48 -15 56 -10 8 -15 30 -15 61 0 27 -4
49 -10 49 -6 0 -10 26 -10 58 0 31 -7 70 -15 86 -22 41 -21 402 0 430 10 13
15 44 15 92 0 40 4 76 10 79 5 3 10 21 10 39 0 19 7 39 15 46 9 8 15 30 15 56
0 24 5 44 10 44 6 0 10 15 10 34 0 19 4 37 9 40 16 10 51 86 51 111 0 14 5 25
10 25 6 0 10 9 10 19 0 11 4 22 9 26 5 3 24 35 41 71 18 36 39 68 46 71 8 3
14 13 14 22 0 10 11 28 25 41 14 13 25 28 25 34 0 6 18 31 40 54 22 24 40 48
40 53 0 17 254 270 317 315 34 24 64 44 68 44 3 0 21 11 39 25 18 14 37 25 42
25 5 0 22 14 38 30 16 17 36 30 45 31 9 0 30 9 46 19 59 37 212 110 231 110
10 0 28 7 38 15 11 8 30 15 42 15 13 0 26 5 29 10 3 6 26 10 49 10 27 0 48 6
56 15 8 9 30 15 56 15 24 0 44 5 44 10 0 6 31 10 74 10 53 0 77 4 86 15 18 22
377 22 406 0 13 -10 45 -14 101 -15 45 0 84 -4 87 -9 4 -5 29 -12 56 -16 27
-4 52 -11 56 -16 3 -5 22 -9 43 -9 21 0 52 -7 67 -15 16 -8 37 -15 47 -15 9 0
17 -4 17 -10 0 -5 15 -10 34 -10 19 0 38 -4 41 -10 5 -8 33 -23 85 -44 8 -3
33 -17 55 -31 22 -13 48 -24 58 -25 9 0 17 -4 17 -10 0 -5 5 -10 11 -10 6 0
25 -11 43 -25 18 -14 38 -25 43 -25 6 0 16 -7 23 -15 7 -8 20 -15 29 -15 9 0
35 -18 56 -40 21 -22 44 -40 50 -40 18 0 227 -211 279 -281 50 -68 105 -139
137 -177 10 -12 19 -26 19 -30 0 -5 18 -34 40 -65 22 -30 40 -60 40 -65 0 -5
11 -30 25 -56 14 -26 25 -52 25 -57 0 -15 39 -97 48 -103 5 -3 9 -20 10 -37 0
-17 6 -37 11 -42 6 -6 11 -23 11 -37 0 -14 7 -35 15 -46 8 -10 15 -36 15 -56
0 -20 4 -39 9 -42 5 -3 12 -44 16 -91 4 -47 11 -87 16 -91 12 -7 12 -391 0
-398 -4 -3 -12 -42 -15 -86 -4 -44 -12 -82 -17 -85 -5 -4 -9 -22 -9 -41 0 -19
-7 -51 -15 -71 -8 -19 -15 -44 -15 -54 0 -11 -4 -27 -9 -37 -21 -42 -41 -94
-41 -108 0 -25 -84 -192 -138 -274 -26 -40 -42 -71 -42 -84 0 -7 -18 -30 -40
-51 -22 -21 -40 -45 -40 -51 0 -17 -311 -330 -335 -338 -11 -3 -37 -22 -57
-41 -20 -19 -43 -35 -51 -35 -8 0 -22 -9 -32 -20 -10 -11 -41 -31 -69 -45 -28
-14 -58 -29 -66 -34 -8 -5 -31 -16 -50 -25 -19 -9 -42 -20 -50 -25 -8 -5 -28
-15 -45 -22 -38 -16 -75 -49 -75 -65 0 -6 -7 -17 -15 -24 -8 -7 -15 -25 -15
-41 0 -15 -4 -31 -10 -34 -5 -3 -10 -19 -10 -34 0 -15 -7 -36 -15 -47 -8 -10
-15 -29 -15 -41 0 -12 -4 -25 -10 -28 -5 -3 -10 -16 -10 -28 0 -12 -7 -35 -15
-51 -8 -15 -15 -38 -15 -50 0 -11 -7 -30 -15 -40 -8 -11 -15 -30 -15 -42 0
-13 -4 -26 -10 -29 -5 -3 -10 -19 -10 -34 0 -15 -7 -36 -15 -47 -8 -10 -15
-29 -15 -42 0 -12 -4 -30 -9 -40 -25 -49 -41 -95 -41 -116 0 -13 -6 -29 -14
-35 -8 -6 -16 -24 -19 -39 -18 -87 -26 -115 -36 -125 -6 -6 -11 -23 -11 -38 0
-15 -4 -31 -10 -34 -5 -3 -10 -14 -10 -23 0 -9 -7 -30 -15 -46 -8 -15 -15 -36
-15 -46 0 -10 -7 -31 -15 -46 -8 -16 -15 -37 -15 -46 0 -9 -4 -20 -10 -23 -6
-3 -10 -21 -10 -39 0 -19 -7 -39 -15 -46 -8 -7 -15 -25 -15 -41 0 -15 -4 -31
-10 -34 -6 -3 -10 -14 -10 -23 0 -9 -7 -30 -15 -46 -8 -15 -15 -38 -15 -50 0
-11 -7 -30 -15 -40 -8 -11 -15 -32 -15 -47 0 -15 -4 -31 -10 -34 -5 -3 -10
-14 -10 -24 0 -10 -11 -39 -25 -65 -14 -26 -25 -60 -25 -75 0 -16 -7 -34 -15
-41 -8 -7 -15 -25 -15 -41 0 -15 -4 -31 -10 -34 -6 -3 -10 -19 -10 -34 0 -16
-7 -34 -15 -41 -8 -7 -15 -22 -15 -34 -1 -11 -7 -32 -15 -46 -8 -14 -14 -37
-15 -52 0 -16 -4 -28 -10 -28 -5 0 -10 -13 -10 -29 0 -16 -7 -34 -15 -41 -8
-7 -15 -27 -15 -45 0 -17 -3 -35 -7 -39 -12 -11 -43 -99 -43 -121 0 -11 -7
-29 -15 -39 -8 -11 -15 -30 -15 -42 0 -13 -5 -26 -10 -29 -5 -3 -10 -19 -10
-34 0 -16 -7 -34 -15 -41 -8 -7 -15 -22 -15 -35 0 -12 -11 -43 -25 -69 -14
-26 -25 -55 -25 -65 0 -9 -7 -26 -15 -37 -8 -10 -15 -33 -15 -51 0 -17 -5 -35
-10 -38 -6 -3 -10 -16 -10 -29 0 -12 -7 -31 -15 -42 -8 -10 -15 -29 -15 -42 0
-13 -7 -30 -15 -38 -8 -9 -15 -28 -15 -44 0 -16 -4 -32 -10 -35 -5 -3 -10 -18
-10 -33 0 -15 -7 -36 -15 -46 -8 -11 -15 -28 -15 -37 0 -10 -11 -39 -25 -65
-14 -26 -25 -57 -25 -70 0 -13 -4 -26 -10 -29 -5 -3 -10 -19 -10 -34 0 -15 -7
-36 -15 -47 -8 -10 -15 -29 -15 -42 0 -13 -7 -30 -15 -38 -8 -9 -15 -29 -15
-45 0 -16 -4 -29 -10 -29 -5 0 -10 -13 -10 -28 0 -16 -7 -37 -15 -48 -8 -10
-15 -31 -15 -46 0 -15 -4 -30 -10 -33 -5 -3 -10 -16 -10 -29 0 -12 -7 -31 -15
-42 -8 -10 -15 -30 -15 -44 0 -14 -7 -34 -15 -44 -8 -11 -15 -32 -15 -47 0
-15 -4 -31 -10 -34 -5 -3 -10 -19 -10 -34 0 -16 -7 -34 -15 -41 -8 -7 -15 -25
-15 -41 0 -15 -4 -31 -10 -34 -5 -3 -10 -16 -10 -29 0 -12 -7 -31 -15 -42 -8
-10 -15 -31 -15 -46 0 -15 -4 -29 -9 -32 -5 -4 -12 -24 -16 -46 -4 -22 -11
-40 -16 -40 -5 0 -9 -15 -9 -34 0 -18 -7 -39 -15 -46 -8 -7 -15 -25 -15 -41 0
-15 -4 -31 -10 -34 -5 -3 -10 -16 -10 -29 0 -12 -7 -31 -15 -42 -8 -10 -15
-32 -15 -49 0 -16 -7 -39 -15 -49 -8 -11 -15 -34 -15 -52 0 -18 -4 -35 -9 -38
-5 -4 -12 -29 -16 -56 -4 -27 -11 -52 -16 -56 -5 -3 -9 -25 -9 -49 0 -24 -4
-47 -10 -50 -5 -3 -10 -28 -10 -56 l0 -49 3319 0 c1826 0 3326 3 3335 6 13 5
16 24 16 99 0 63 -4 96 -13 103 -7 6 -14 35 -15 63 -1 29 -7 58 -12 63 -6 6
-10 36 -10 67 0 38 -5 61 -15 69 -9 8 -15 30 -15 60 0 26 -7 61 -15 76 -8 16
-15 48 -15 71 0 23 -4 45 -10 48 -5 3 -10 26 -10 49 0 27 -6 48 -15 56 -9 8
-15 29 -15 56 0 23 -4 46 -10 49 -5 3 -10 26 -10 50 0 29 -5 45 -15 49 -11 4
-15 20 -15 56 0 27 -4 50 -9 50 -5 0 -11 22 -15 50 -4 27 -11 52 -16 55 -6 3
-10 26 -10 49 0 27 -6 48 -15 56 -9 8 -15 29 -15 56 0 23 -4 46 -10 49 -5 3
-10 24 -10 45 0 21 -7 45 -15 54 -8 8 -15 28 -15 45 0 16 -4 32 -9 35 -4 3
-11 27 -14 53 -3 26 -10 49 -16 51 -6 2 -11 23 -11 47 0 23 -7 56 -15 71 -8
16 -15 41 -15 56 0 15 -4 30 -10 33 -5 3 -10 26 -10 49 0 27 -6 48 -15 56 -8
7 -15 25 -15 41 0 15 -4 31 -10 34 -5 3 -10 26 -10 49 0 27 -6 48 -15 56 -9 7
-15 29 -15 55 0 26 -6 48 -15 55 -8 7 -15 25 -15 41 0 15 -4 31 -10 34 -5 3
-10 26 -10 49 0 27 -6 48 -15 56 -9 8 -15 30 -15 56 0 24 -4 44 -10 44 -5 0
-10 20 -10 44 0 26 -6 48 -15 56 -8 7 -15 25 -15 41 0 15 -4 30 -9 33 -4 3
-11 28 -15 55 -4 28 -11 53 -16 56 -6 3 -10 26 -10 49 0 27 -6 48 -15 56 -8 7
-15 25 -15 41 0 15 -4 31 -10 34 -5 3 -10 26 -10 49 0 27 -6 48 -15 56 -9 7
-15 29 -15 55 0 26 -6 48 -15 55 -8 7 -15 25 -15 41 0 15 -4 31 -10 34 -5 3
-10 26 -10 49 0 27 -6 48 -15 56 -9 8 -15 30 -15 56 0 24 -4 44 -10 44 -5 0
-10 13 -10 28 0 16 -7 37 -15 48 -8 10 -15 35 -15 55 0 20 -7 50 -15 65 -8 16
-15 37 -15 47 0 9 -4 17 -10 17 -5 0 -10 20 -10 44 0 26 -6 48 -15 56 -9 8
-15 29 -15 56 0 23 -4 46 -10 49 -5 3 -10 19 -10 34 0 15 -7 36 -15 47 -8 10
-15 36 -15 56 0 20 -4 39 -9 42 -5 4 -12 29 -16 56 -4 27 -11 52 -16 56 -5 3
-9 17 -9 32 0 15 -7 36 -15 46 -8 11 -15 37 -15 57 0 21 -4 41 -10 44 -5 3
-10 26 -10 51 0 30 -5 46 -15 50 -9 4 -15 19 -15 39 0 19 -4 37 -10 40 -5 3
-12 28 -16 55 -4 28 -10 50 -15 50 -5 0 -9 15 -9 34 0 18 -7 39 -15 46 -9 8
-15 30 -15 56 0 24 -4 44 -10 44 -5 0 -10 22 -10 49 0 31 -5 53 -15 61 -8 7
-15 25 -15 41 0 15 -4 31 -10 34 -5 3 -10 20 -10 37 0 37 -25 68 -54 68 -12 0
-50 16 -86 35 -36 19 -75 39 -87 45 -13 5 -42 19 -65 30 -23 11 -48 20 -55 20
-7 0 -13 4 -13 9 0 5 -10 13 -22 17 -13 4 -36 17 -51 30 -16 13 -34 24 -41 24
-6 0 -30 18 -51 40 -21 22 -45 40 -52 40 -17 0 -301 278 -309 303 -4 12 -22
37 -40 57 -19 19 -34 40 -34 46 0 5 -13 23 -30 39 -16 16 -30 35 -30 43 0 8
-11 27 -25 44 -14 16 -25 36 -25 44 0 8 -4 14 -10 14 -5 0 -10 8 -10 19 0 10
-7 24 -15 31 -8 7 -15 19 -15 27 0 8 -7 21 -15 29 -8 9 -15 29 -15 45 0 16 -4
29 -10 29 -5 0 -10 8 -10 19 0 10 -7 24 -15 31 -8 7 -15 27 -15 45 0 19 -5 35
-11 37 -6 2 -13 25 -16 51 -3 26 -10 50 -14 53 -5 3 -9 25 -9 48 0 27 -6 48
-15 56 -11 9 -15 32 -15 81 0 37 -4 71 -10 74 -6 4 -10 85 -10 210 0 125 4
206 10 210 6 3 10 41 10 84 0 58 4 82 15 91 8 7 15 28 15 46 0 19 5 34 10 34
6 0 10 15 10 33 0 17 7 45 15 61 8 15 15 38 15 51 0 12 7 28 15 35 8 7 15 21
15 31 0 10 5 21 10 24 6 3 10 19 10 35 0 16 4 31 9 35 6 3 16 18 24 33 77 151
158 282 201 321 14 14 26 31 26 38 0 16 292 313 307 313 6 0 27 14 48 30 21
17 42 30 47 30 5 0 21 11 36 25 15 14 32 25 38 25 6 0 21 11 34 25 13 14 31
25 41 25 9 0 22 7 29 15 7 8 21 15 31 15 11 0 19 5 19 10 0 6 6 10 14 10 14 0
124 56 140 71 6 5 24 9 42 9 17 0 37 7 44 15 7 8 25 15 41 15 16 0 29 5 29 10
0 6 20 10 44 10 26 0 48 6 56 15 7 9 30 15 54 15 22 0 50 7 60 15 13 10 43 15
82 15 35 0 66 5 69 10 8 13 412 14 417 1z m-2419 -4260 c6 -6 37 -11 68 -11
38 0 61 -5 69 -15 7 -8 27 -15 45 -15 18 0 67 -18 111 -40 43 -22 86 -40 95
-40 9 0 24 -9 34 -20 10 -12 35 -30 54 -42 43 -25 201 -186 201 -204 0 -7 11
-21 25 -32 14 -11 25 -27 25 -35 0 -8 7 -20 15 -27 8 -7 15 -21 15 -31 0 -10
5 -21 10 -24 6 -3 10 -18 10 -33 0 -15 7 -36 15 -46 8 -11 15 -39 15 -62 0
-24 5 -46 10 -49 16 -10 12 -207 -5 -248 -8 -20 -15 -50 -15 -67 0 -17 -4 -38
-9 -48 -5 -9 -13 -28 -18 -42 -27 -69 -58 -126 -75 -138 -10 -7 -18 -20 -18
-29 0 -18 -168 -193 -185 -193 -6 0 -29 -18 -50 -40 -21 -22 -45 -40 -51 -40
-15 0 -78 -32 -82 -42 -2 -5 -18 -8 -35 -8 -18 0 -41 -7 -51 -15 -11 -8 -30
-15 -42 -15 -13 0 -26 -4 -29 -10 -3 -5 -30 -10 -58 -10 -29 -1 -63 -7 -77
-15 -36 -21 -268 -21 -296 0 -10 8 -39 15 -64 15 -25 0 -54 6 -65 14 -11 7
-27 13 -35 14 -19 1 -87 26 -97 36 -14 14 -75 36 -98 36 -13 0 -41 18 -65 40
-23 22 -48 40 -54 40 -14 0 -152 141 -184 187 -12 18 -22 38 -22 46 0 7 -11
24 -25 37 -14 13 -25 31 -25 41 0 9 -7 22 -15 29 -8 7 -15 25 -15 41 0 15 -4
31 -10 34 -5 3 -10 30 -10 59 0 35 -5 58 -15 66 -11 9 -15 35 -15 105 0 70 4
96 15 105 10 8 15 31 15 66 0 29 5 56 10 59 6 3 10 14 10 24 0 10 7 24 15 31
8 7 15 25 15 39 0 16 10 37 25 51 14 13 25 29 25 36 0 35 139 193 213 243 48
32 146 89 167 97 8 3 38 17 65 30 28 13 67 24 87 24 23 0 38 5 42 15 4 11 21
15 66 15 33 0 60 4 60 9 0 6 15 12 33 14 54 8 219 -1 230 -12z m-2171 -1978
c20 -18 26 -107 8 -118 -5 -3 -10 -30 -10 -59 0 -35 -5 -58 -15 -66 -10 -8
-15 -30 -15 -65 0 -35 -5 -57 -15 -65 -9 -8 -15 -29 -15 -56 0 -23 -4 -46 -10
-49 -5 -3 -10 -14 -10 -23 0 -9 -7 -30 -15 -46 -8 -15 -15 -41 -15 -57 0 -16
-4 -29 -9 -29 -5 0 -12 -18 -16 -40 -4 -22 -11 -40 -16 -40 -5 0 -9 -4 -9 -10
0 -5 17 -10 38 -10 21 0 47 -7 58 -15 10 -8 29 -15 40 -15 12 0 35 -7 50 -15
16 -8 39 -15 52 -15 12 0 22 -4 22 -10 0 -5 22 -10 49 -10 28 0 53 -4 56 -10
3 -5 24 -10 45 -10 21 0 45 -7 54 -15 8 -8 32 -15 55 -15 22 0 43 -4 46 -10 3
-5 23 -10 44 -10 20 0 46 -7 57 -15 10 -8 38 -15 60 -15 24 0 47 -6 54 -15 8
-9 30 -15 56 -15 24 0 44 -4 44 -10 0 -5 20 -10 44 -10 26 0 48 -6 56 -15 8
-9 29 -15 56 -15 23 0 46 -4 49 -10 3 -5 23 -10 44 -10 20 0 46 -7 57 -15 11
-8 41 -15 70 -15 33 0 56 -5 64 -15 8 -10 31 -15 71 -15 32 0 61 -4 64 -10 3
-5 37 -10 74 -10 49 0 72 -4 81 -15 9 -11 32 -15 81 -15 37 0 71 -4 74 -10 8
-14 692 -14 700 0 3 6 37 10 74 10 49 0 72 4 81 15 8 10 31 15 66 15 29 0 56
5 59 10 3 6 26 10 49 10 27 0 48 6 56 15 7 9 29 15 55 15 26 0 48 6 55 15 7 8
25 15 41 15 15 0 31 5 34 10 3 6 26 10 49 10 27 0 48 6 56 15 7 8 25 15 41 15
15 0 31 5 34 10 3 6 19 10 34 10 16 0 34 7 41 15 7 8 28 15 46 15 19 0 34 4
34 10 0 5 23 12 50 16 28 4 53 11 56 15 3 5 20 9 38 9 19 0 39 7 46 15 7 8 25
15 41 15 16 0 29 5 29 10 0 6 15 10 34 10 18 0 39 7 46 15 7 8 25 15 41 15 15
0 31 5 34 10 3 6 19 10 34 10 15 0 36 7 47 15 10 8 31 15 47 15 24 0 27 4 27
35 0 19 -4 35 -8 35 -5 0 -15 17 -24 38 -8 20 -18 44 -22 52 -3 8 -15 29 -25
45 -11 17 -20 37 -20 46 -1 9 -8 22 -16 29 -8 7 -15 21 -15 31 0 11 -4 19 -8
19 -14 0 -42 76 -42 115 0 78 67 101 127 43 18 -18 33 -39 33 -47 0 -9 12 -27
25 -40 14 -13 25 -27 25 -33 0 -5 11 -24 25 -42 14 -18 25 -36 25 -40 0 -4 11
-22 25 -40 14 -18 25 -37 25 -42 0 -6 18 -28 40 -49 22 -21 40 -47 40 -56 0
-9 11 -25 25 -35 14 -10 25 -26 25 -35 0 -8 14 -28 30 -44 17 -16 30 -35 30
-42 0 -8 11 -26 25 -41 14 -15 25 -31 25 -37 0 -5 18 -30 40 -53 22 -24 40
-49 40 -56 0 -7 11 -23 25 -36 14 -13 25 -30 25 -38 0 -8 11 -25 25 -38 14
-13 25 -29 25 -37 0 -7 11 -24 25 -37 47 -44 22 -120 -40 -120 -31 0 -65 28
-65 53 0 8 -77 91 -171 185 -196 197 -191 195 -289 141 -8 -5 -34 -18 -57 -29
-23 -11 -44 -24 -47 -28 -9 -16 34 -87 79 -132 25 -24 45 -51 45 -60 0 -9 18
-34 40 -55 22 -21 40 -44 40 -50 0 -5 18 -30 40 -53 22 -24 40 -49 40 -56 0
-7 15 -27 34 -45 19 -18 37 -44 40 -57 4 -13 11 -24 16 -24 6 0 10 -6 10 -14
0 -7 11 -34 25 -60 14 -26 25 -53 25 -60 0 -8 7 -19 15 -26 11 -10 15 -35 15
-110 l0 -97 -37 -36 c-23 -23 -46 -37 -62 -37 -14 0 -35 -7 -45 -15 -11 -8
-30 -15 -43 -15 -13 0 -23 -4 -23 -10 0 -5 -8 -10 -17 -10 -10 0 -27 -7 -37
-15 -11 -8 -32 -15 -47 -15 -15 0 -31 -4 -34 -10 -3 -5 -15 -10 -26 -10 -10 0
-19 -4 -19 -8 0 -14 -75 -42 -112 -42 -24 0 -42 8 -58 25 -13 14 -30 25 -39
25 -18 0 -161 139 -161 156 0 6 -11 21 -25 34 -14 13 -25 31 -25 41 0 9 -7 22
-15 29 -8 7 -15 21 -15 31 0 11 -4 19 -10 19 -5 0 -10 8 -10 19 0 10 -7 24
-15 31 -8 7 -15 21 -15 31 0 10 -4 21 -10 24 -5 3 -10 14 -10 24 0 10 -7 24
-15 31 -8 7 -15 21 -15 31 0 11 -4 19 -10 19 -5 0 -10 8 -10 19 0 10 -7 24
-15 31 -8 7 -15 21 -15 31 0 11 -4 19 -10 19 -5 0 -10 8 -10 19 0 10 -6 24
-14 31 -8 6 -16 21 -18 33 -4 28 -58 36 -78 13 -7 -9 -20 -16 -29 -17 -9 0
-29 -9 -46 -20 -16 -10 -37 -21 -45 -25 -8 -3 -50 -23 -93 -45 -43 -21 -85
-39 -92 -39 -8 0 -35 -11 -61 -25 -26 -14 -53 -25 -60 -25 -8 0 -14 -4 -14
-10 0 -5 -18 -13 -40 -16 -22 -4 -43 -11 -46 -15 -3 -5 -18 -9 -33 -9 -16 0
-34 -7 -41 -15 -7 -8 -25 -15 -41 -15 -15 0 -31 -4 -34 -10 -3 -5 -23 -10 -43
-10 -20 -1 -48 -7 -62 -15 -14 -8 -46 -14 -71 -15 -29 0 -51 -6 -59 -15 -10
-12 -44 -15 -190 -15 -146 0 -180 3 -190 15 -9 11 -32 15 -79 15 -42 1 -73 6
-85 15 -11 8 -37 15 -57 15 -21 0 -41 5 -44 10 -3 6 -19 10 -34 10 -16 0 -34
7 -41 15 -7 8 -27 15 -45 15 -19 0 -35 3 -37 8 -4 9 -99 42 -121 42 -18 0 -80
31 -85 43 -2 4 -14 7 -27 7 -13 0 -59 18 -101 40 -43 22 -84 40 -93 40 -11 0
-324 151 -411 199 -8 5 -28 14 -45 21 -16 7 -37 16 -45 21 -51 28 -138 69
-148 69 -7 0 -12 4 -12 8 0 9 -69 42 -87 42 -6 0 -16 7 -23 15 -7 8 -21 15
-31 15 -11 0 -19 5 -19 10 0 6 -9 10 -19 10 -11 0 -22 4 -25 9 -9 13 -74 45
-126 61 -25 7 -59 24 -76 36 -30 22 -33 22 -46 6 -8 -9 -24 -38 -34 -64 -10
-27 -22 -48 -26 -48 -5 0 -8 -8 -8 -19 0 -10 -7 -24 -15 -31 -8 -7 -15 -20
-15 -29 0 -10 -11 -28 -25 -41 -14 -13 -25 -32 -25 -42 0 -10 -4 -18 -9 -18
-5 0 -13 -10 -16 -22 -4 -13 -16 -33 -27 -44 -10 -12 -27 -37 -37 -55 -16 -29
-24 -34 -61 -37 -33 -3 -48 2 -66 19 -27 26 -32 70 -9 89 8 7 15 28 15 46 0
19 5 34 10 34 6 0 10 8 10 19 0 10 7 24 15 31 8 7 15 22 15 35 0 12 11 43 25
69 14 26 25 58 25 70 0 13 7 29 15 36 8 7 15 25 15 41 0 15 5 31 10 34 6 3 10
14 10 24 0 10 7 24 15 31 8 7 15 22 15 33 0 25 31 97 42 97 4 0 8 15 8 34 0
18 7 39 15 46 8 7 15 21 15 31 0 11 5 19 10 19 6 0 10 16 10 35 0 22 6 38 15
41 8 4 15 14 15 24 0 11 5 22 10 25 6 3 10 19 10 34 0 16 7 34 15 41 8 7 15
28 15 47 0 21 6 36 15 39 8 4 15 14 15 24 0 11 5 22 10 25 6 3 10 19 10 34 0
16 7 34 15 41 8 7 15 19 15 28 0 8 7 24 17 34 21 24 99 25 125 1z"/>
<path d="M7390 9153 c-152 -51 -199 -79 -291 -173 -86 -87 -149 -187 -149
-235 0 -13 -7 -28 -15 -35 -8 -7 -15 -27 -15 -45 0 -19 -4 -35 -9 -37 -15 -5
-16 -251 -2 -256 6 -2 11 -18 11 -37 0 -18 7 -38 15 -45 8 -7 15 -25 15 -41 0
-16 11 -47 25 -69 14 -22 25 -45 25 -52 0 -7 41 -53 92 -101 73 -70 111 -97
183 -132 50 -25 101 -45 113 -45 11 0 24 -4 27 -10 4 -6 63 -10 145 -10 82 0
141 4 145 10 3 6 19 10 34 10 16 0 34 7 41 15 7 8 21 15 31 15 11 0 19 4 19 8
0 8 68 42 83 42 4 0 49 42 100 93 86 84 127 140 127 172 0 7 7 15 15 19 8 3
15 14 15 25 0 11 5 23 10 26 6 3 10 26 10 49 0 27 6 48 15 56 22 18 22 242 0
260 -9 7 -13 21 -9 34 3 14 -1 28 -10 35 -9 8 -16 29 -16 47 0 19 -4 34 -8 34
-8 0 -42 69 -42 86 0 17 -186 204 -202 204 -9 0 -19 4 -23 10 -8 14 -122 65
-186 84 -86 25 -226 20 -319 -11z"/>
<path d="M3176 9085 c-11 -8 -32 -15 -47 -15 -15 0 -31 -4 -34 -10 -3 -5 -15
-10 -25 -10 -46 0 -143 -65 -231 -155 -80 -81 -101 -109 -140 -187 -5 -10 -9
-29 -9 -44 0 -14 -7 -32 -15 -40 -8 -9 -15 -26 -15 -39 0 -13 -4 -27 -10 -30
-6 -4 -10 -60 -10 -135 0 -75 4 -131 10 -135 6 -3 10 -19 10 -34 0 -16 7 -34
15 -41 8 -7 15 -22 15 -33 0 -25 31 -97 42 -97 4 0 8 -7 8 -17 0 -21 189 -213
211 -213 9 0 22 -7 29 -15 7 -8 21 -15 31 -15 11 0 19 -4 19 -8 0 -10 59 -32
86 -32 11 0 29 -7 40 -15 14 -11 50 -14 149 -14 99 0 135 3 149 14 11 8 30 15
42 15 13 0 26 5 29 10 3 6 13 10 21 10 8 0 32 11 54 25 22 14 45 25 52 25 19
0 191 181 214 225 12 22 31 57 42 77 12 20 24 60 28 88 4 28 11 53 15 56 5 3
9 58 9 122 -1 87 -4 122 -15 136 -8 11 -15 32 -15 48 0 15 -4 28 -10 28 -5 0
-10 15 -10 34 0 18 -7 39 -15 46 -8 7 -15 18 -15 25 0 49 -167 234 -245 271
-27 14 -57 28 -65 33 -47 25 -65 33 -108 43 -26 6 -96 13 -157 15 -87 2 -114
0 -129 -12z"/>
<path d="M6742 3111 c-30 -25 -29 -71 3 -101 14 -13 25 -31 25 -40 0 -9 11
-27 25 -40 14 -13 25 -30 25 -37 0 -8 11 -24 25 -37 14 -13 25 -30 25 -38 0
-8 11 -25 25 -38 14 -13 25 -31 25 -39 0 -9 14 -29 30 -45 17 -16 30 -35 30
-42 0 -6 11 -22 25 -35 13 -13 25 -31 25 -40 0 -8 11 -26 25 -39 14 -13 25
-31 25 -41 0 -9 18 -32 40 -50 22 -18 40 -41 40 -50 0 -42 80 -66 106 -31 20
26 17 76 -6 97 -11 10 -20 24 -20 30 0 12 -31 56 -84 121 -14 18 -26 38 -26
46 0 8 -11 25 -25 38 -14 13 -25 28 -25 34 0 6 -11 23 -25 38 -14 15 -25 33
-25 41 0 7 -11 24 -25 37 -14 13 -25 30 -25 38 0 8 -13 30 -30 49 -16 18 -30
38 -30 44 0 5 -11 22 -25 37 -14 15 -25 32 -25 37 0 19 -65 75 -86 75 -12 0
-31 -8 -42 -19z"/>
</g>
</svg>
